<svg width="17" height="16" viewBox="0 0 17 16" fill="none" xmlns="http://www.w3.org/2000/svg">
<path d="M8.58371 3.8978C6.23315 3.8978 4.33718 5.72933 4.33718 8C4.33718 10.2707 6.23315 12.1022 8.58371 12.1022C10.9343 12.1022 12.8302 10.2707 12.8302 8C12.8302 5.72933 10.9343 3.8978 8.58371 3.8978ZM8.58371 10.667C7.06472 10.667 5.82291 9.47094 5.82291 8C5.82291 6.52906 7.06102 5.33304 8.58371 5.33304C10.1064 5.33304 11.3445 6.52906 11.3445 8C11.3445 9.47094 10.1027 10.667 8.58371 10.667ZM13.9944 3.73C13.9944 4.26197 13.5509 4.68682 13.0039 4.68682C12.4533 4.68682 12.0134 4.2584 12.0134 3.73C12.0134 3.20161 12.4569 2.77318 13.0039 2.77318C13.5509 2.77318 13.9944 3.20161 13.9944 3.73ZM16.807 4.7011C16.7441 3.41939 16.4411 2.28406 15.4691 1.34866C14.5007 0.413254 13.3255 0.120495 11.9987 0.0562312C10.6312 -0.0187437 6.53251 -0.0187437 5.16505 0.0562312C3.84194 0.116925 2.66666 0.409684 1.69466 1.34509C0.722651 2.28049 0.423288 3.41582 0.356763 4.69753C0.27915 6.01852 0.27915 9.97791 0.356763 11.2989C0.419592 12.5806 0.722651 13.7159 1.69466 14.6513C2.66666 15.5867 3.83825 15.8795 5.16505 15.9438C6.53251 16.0187 10.6312 16.0187 11.9987 15.9438C13.3255 15.8831 14.5007 15.5903 15.4691 14.6513C16.4374 13.7159 16.7404 12.5806 16.807 11.2989C16.8846 9.97791 16.8846 6.02209 16.807 4.7011ZM15.0403 12.7163C14.7521 13.416 14.194 13.9551 13.4659 14.2372C12.3756 14.6549 9.78855 14.5585 8.58371 14.5585C7.37886 14.5585 4.78808 14.6513 3.7015 14.2372C2.97711 13.9587 2.41904 13.4196 2.12707 12.7163C1.69466 11.6631 1.79445 9.1639 1.79445 8C1.79445 6.8361 1.69835 4.33337 2.12707 3.28372C2.41535 2.58396 2.97342 2.04485 3.7015 1.7628C4.79177 1.34509 7.37886 1.44148 8.58371 1.44148C9.78855 1.44148 12.3793 1.34866 13.4659 1.7628C14.1903 2.04128 14.7484 2.58039 15.0403 3.28372C15.4728 4.33694 15.373 6.8361 15.373 8C15.373 9.1639 15.4728 11.6666 15.0403 12.7163Z" fill="white"/>
</svg>
