<svg width="18" height="16" viewBox="0 0 18 16" fill="none" xmlns="http://www.w3.org/2000/svg">
<path fill-rule="evenodd" clip-rule="evenodd" d="M9.1335 4.65914L9.09658 4.0075C8.98587 2.31866 9.95756 0.776073 11.4951 0.177712C12.0609 -0.0350808 13.0203 -0.0616799 13.6476 0.124513C13.8936 0.204311 14.361 0.470223 14.6931 0.709614L15.2958 1.14846L15.96 0.922407C16.3291 0.802672 16.8211 0.603218 17.0424 0.470223C17.2515 0.350566 17.436 0.284029 17.436 0.323967C17.436 0.55002 16.9809 1.32131 16.5996 1.74682C16.083 2.34526 16.2306 2.39846 17.2761 1.99947C17.9035 1.77342 17.9157 1.77342 17.7927 2.02607C17.7189 2.15907 17.3376 2.62451 16.9317 3.05002C16.2429 3.78145 16.206 3.86125 16.206 4.47295C16.206 5.4171 15.7878 7.38519 15.3696 8.46233C14.5947 10.4836 12.9342 12.5714 11.2737 13.6219C8.9367 15.0981 5.82474 15.4704 3.20485 14.606C2.33156 14.3134 0.830933 13.5687 0.830933 13.4358C0.830933 13.3959 1.28601 13.3427 1.83956 13.3294C2.99574 13.3028 4.15193 12.957 5.13594 12.3453L5.8002 11.9198L5.03754 11.6406C3.95513 11.2416 2.98344 10.324 2.73747 9.45968C2.66362 9.18043 2.68823 9.16709 3.37704 9.16709L4.09046 9.15383L3.48775 8.84798C2.77432 8.46233 2.12245 7.8107 1.80263 7.1458C1.5689 6.6671 1.27377 5.45696 1.35986 5.3639C1.38441 5.32404 1.64275 5.40376 1.93796 5.51015C2.78663 5.8426 2.89734 5.76281 2.40534 5.2043C1.48281 4.1937 1.19992 2.69097 1.64275 1.26812L1.85187 0.629816L2.66361 1.49417C4.32419 3.23621 6.27989 4.27349 8.51848 4.57934L9.1335 4.65914Z" fill="white"/>
</svg>
